# xmcd CD database file generated by Grip 2.9
# 
# Track frame offsets:
#       150
#       12807
#       29680
#       38577
#       50987
#       61670
#       70037
#       81020
#       101557
#       113107
#       123912
#       135235
#       146955
#       162642
#       175397
#       193645
#       203115
#       213559
#       221615
#       233532
#       254392
#       273212
#       288560
#       300440
#       313207
# 
# Disc length: 4319 seconds
# 
# Revision: 3
# Processed by: cddbd v1.4b41PL1 Copyright (c) Steve Scherf et al.
# Submitted via: Grip 2.9
# 
DISCID=7010dd19
DTITLE=Nat King Cole Trio - The very best of
DYEAR=1900
DGENRE=
TTITLE0=Man On The Little White Keys
TTITLE1=Old Piano Plays The Blues
TTITLE2=It's Only A Paper Moon
TTITLE3=You Can't Smile And Say Yes
TTITLE4=Frim Fram Sauce
TTITLE5=Yes Sir, That's My Baby
TTITLE6=You're The Cream In My Coffee
TTITLE7=Bugle Call Rag
TTITLE8=Last But Not Least
TTITLE9=Sweet Georgia Brown
TTITLE10=Too Marvellous For Words
TTITLE11=Sweet Lorraine
TTITLE12=Satchel Mouth Baby
TTITLE13=On The Sunny Side Of The Street
TTITLE14=Cole's Bob Blues
TTITLE15=Miss Thing
TTITLE16=The Greatest Invention
TTITLE17=I'm Lost
TTITLE18=Tea For Two
TTITLE19=Nat Meets June
TTITLE20=The Trouble With You Is Me
TTITLE21=Don't Cry, Cry Baby
TTITLE22=Let's Spring One
TTITLE23=My Lips Remember Your Kisses
TTITLE24=Got A Penny
EXTD=
EXTT0=
EXTT1=
EXTT2=
EXTT3=
EXTT4=
EXTT5=
EXTT6=
EXTT7=
EXTT8=
EXTT9=
EXTT10=
EXTT11=
EXTT12=
EXTT13=
EXTT14=
EXTT15=
EXTT16=
EXTT17=
EXTT18=
EXTT19=
EXTT20=
EXTT21=
EXTT22=
EXTT23=
EXTT24=
PLAYORDER=
